<mxfile host="Electron" agent="Mozilla/5.0 (Windows NT 10.0; Win64; x64) AppleWebKit/537.36 (KHTML, like Gecko) draw.io/24.7.17 Chrome/128.0.6613.36 Electron/32.0.1 Safari/537.36" version="24.7.17">
  <diagram id="C5RBs43oDa-KdzZeNtuy" name="Page-1">
    <mxGraphModel dx="1050" dy="621" grid="1" gridSize="10" guides="1" tooltips="1" connect="1" arrows="1" fold="1" page="1" pageScale="1" pageWidth="827" pageHeight="1169" math="0" shadow="0">
      <root>
        <mxCell id="WIyWlLk6GJQsqaUBKTNV-0" />
        <mxCell id="WIyWlLk6GJQsqaUBKTNV-1" parent="WIyWlLk6GJQsqaUBKTNV-0" />
        <mxCell id="zkfFHV4jXpPFQw0GAbJ--0" value="AssetTrackingApp - extends JFrame" style="swimlane;fontStyle=3;align=center;verticalAlign=top;childLayout=stackLayout;horizontal=1;startSize=26;horizontalStack=0;resizeParent=1;resizeLast=0;collapsible=1;marginBottom=0;rounded=0;shadow=0;strokeWidth=1;" parent="WIyWlLk6GJQsqaUBKTNV-1" vertex="1">
          <mxGeometry x="20" y="10" width="250" height="674" as="geometry">
            <mxRectangle x="230" y="140" width="160" height="26" as="alternateBounds" />
          </mxGeometry>
        </mxCell>
        <mxCell id="zkfFHV4jXpPFQw0GAbJ--1" value="users: HashMap&lt;String, User&gt;          &#xa;ASSET_TYPES: String[]                  &#xa;usernameField: JTextField              &#xa;passwordField: JPasswordField          &#xa;loginPanel: JPanel                     &#xa;mainPanel: JPanel                      &#xa;cardPanel: JPanel                      &#xa;assetTagField: JTextField              &#xa;systemNameField: JTextField            &#xa;modelField: JTextField                 &#xa;manufacturerField: JTextField          &#xa;typeField: JTextField                  &#xa;ipAddressField: JTextField             &#xa;purchaseDateField: JTextField          &#xa;employeeFirstNameField: JTextField     &#xa;employeeLastNameField: JTextField      &#xa;employeeEmailField: JTextField         &#xa;notesField: JTextArea                  &#xa;departmentComboBox: JComboBox&lt;String&gt;  &#xa;typeComboBox: JComboBox&lt;String&gt;        &#xa;DEPARTMENTS: String[]                  &#xa;DATABASE_URL: String" style="text;align=left;verticalAlign=top;spacingLeft=4;spacingRight=4;overflow=hidden;rotatable=0;points=[[0,0.5],[1,0.5]];portConstraint=eastwest;" parent="zkfFHV4jXpPFQw0GAbJ--0" vertex="1">
          <mxGeometry y="26" width="250" height="324" as="geometry" />
        </mxCell>
        <mxCell id="zkfFHV4jXpPFQw0GAbJ--4" value="" style="line;html=1;strokeWidth=1;align=left;verticalAlign=middle;spacingTop=-1;spacingLeft=3;spacingRight=3;rotatable=0;labelPosition=right;points=[];portConstraint=eastwest;" parent="zkfFHV4jXpPFQw0GAbJ--0" vertex="1">
          <mxGeometry y="350" width="250" height="8" as="geometry" />
        </mxCell>
        <mxCell id="zkfFHV4jXpPFQw0GAbJ--5" value="AssetTrackingApp()                     &#xa;createNewDatabase(): void              &#xa;initializeUsers(): void                &#xa;createMainPanel(): JPanel              &#xa;setFullScreen(): void                  &#xa;createLoginPanel(): JPanel             &#xa;isValidCredentials(username: String, password: String): boolean &#xa;createConstraints(x: int, y: int): GridBagConstraints &#xa;createConstraints(x: int, y: int, width: int, height: int): GridBagConstraints &#xa;styleButton(button: JButton): void     &#xa;createAddAssetPanel(): JPanel          &#xa;getSystemProperty(property: String): String &#xa;getLocalIPAddress(): String            &#xa;switchToPanel(panelName: String): void &#xa;authenticate(): void                   &#xa;showMainPanel(panelName: String): void &#xa;addAsset(): void                       &#xa;clearAssetFields(): void               &#xa;logout(): void                         &#xa;main(args: String[]): void " style="text;align=left;verticalAlign=top;spacingLeft=4;spacingRight=4;overflow=hidden;rotatable=0;points=[[0,0.5],[1,0.5]];portConstraint=eastwest;" parent="zkfFHV4jXpPFQw0GAbJ--0" vertex="1">
          <mxGeometry y="358" width="250" height="306" as="geometry" />
        </mxCell>
        <mxCell id="zkfFHV4jXpPFQw0GAbJ--17" value="User" style="swimlane;fontStyle=0;align=center;verticalAlign=top;childLayout=stackLayout;horizontal=1;startSize=26;horizontalStack=0;resizeParent=1;resizeLast=0;collapsible=1;marginBottom=0;rounded=0;shadow=0;strokeWidth=1;" parent="WIyWlLk6GJQsqaUBKTNV-1" vertex="1">
          <mxGeometry x="340" y="10" width="600" height="231" as="geometry">
            <mxRectangle x="550" y="140" width="160" height="26" as="alternateBounds" />
          </mxGeometry>
        </mxCell>
        <mxCell id="zkfFHV4jXpPFQw0GAbJ--18" value="username: String &#xa;password: String &#xa;firstName: String&#xa;lastName: String &#xa;email: String &#xa;department: String   " style="text;align=left;verticalAlign=top;spacingLeft=4;spacingRight=4;overflow=hidden;rotatable=0;points=[[0,0.5],[1,0.5]];portConstraint=eastwest;" parent="zkfFHV4jXpPFQw0GAbJ--17" vertex="1">
          <mxGeometry y="26" width="600" height="104" as="geometry" />
        </mxCell>
        <mxCell id="zkfFHV4jXpPFQw0GAbJ--23" value="" style="line;html=1;strokeWidth=1;align=left;verticalAlign=middle;spacingTop=-1;spacingLeft=3;spacingRight=3;rotatable=0;labelPosition=right;points=[];portConstraint=eastwest;" parent="zkfFHV4jXpPFQw0GAbJ--17" vertex="1">
          <mxGeometry y="130" width="600" height="8" as="geometry" />
        </mxCell>
        <mxCell id="zkfFHV4jXpPFQw0GAbJ--24" value="User(username: String, password: String, firstName: String, lastName: String, email: String, department: String) &#xa;getUsername(): String |&#xa;getPassword(): String &#xa;getFirstName(): String &#xa;getLastName(): String " style="text;align=left;verticalAlign=top;spacingLeft=4;spacingRight=4;overflow=hidden;rotatable=0;points=[[0,0.5],[1,0.5]];portConstraint=eastwest;" parent="zkfFHV4jXpPFQw0GAbJ--17" vertex="1">
          <mxGeometry y="138" width="600" height="93" as="geometry" />
        </mxCell>
        <mxCell id="w5FNJmB1gXWIzoXoYClQ-7" style="edgeStyle=orthogonalEdgeStyle;rounded=0;orthogonalLoop=1;jettySize=auto;html=1;exitX=1;exitY=0.5;exitDx=0;exitDy=0;entryX=0.02;entryY=0.247;entryDx=0;entryDy=0;entryPerimeter=0;" parent="WIyWlLk6GJQsqaUBKTNV-1" source="zkfFHV4jXpPFQw0GAbJ--1" target="zkfFHV4jXpPFQw0GAbJ--24" edge="1">
          <mxGeometry relative="1" as="geometry" />
        </mxCell>
      </root>
    </mxGraphModel>
  </diagram>
</mxfile>
